<svg xmlns="http://www.w3.org/2000/svg" version="1.1" xmlns:xlink="http://www.w3.org/1999/xlink" xmlns:svgjs="http://svgjs.dev/svgjs" width="1500" height="1500" viewBox="0 0 1500 1500"><rect width="1500" height="1500" fill="#ffffff"></rect><g transform="matrix(0.6666666666666666,0,0,0.6666666666666666,249.39393939393943,599.039492662019)"><svg viewBox="0 0 396 120" data-background-color="#282634" preserveAspectRatio="xMidYMid meet" height="454" width="1500" xmlns="http://www.w3.org/2000/svg" xmlns:xlink="http://www.w3.org/1999/xlink"><g id="tight-bounds" transform="matrix(1,0,0,1,0.2400000000000091,-0.14781647392825903)"><svg viewBox="0 0 395.52 120.29563294785652" height="120.29563294785652" width="395.52"><g><svg viewBox="0 0 674.1043114100057 205.02580100613272" height="120.29563294785652" width="395.52"><g transform="matrix(1,0,0,1,278.58431141000574,0)"><svg viewBox="0 0 395.52 205.02580100613272" height="205.02580100613272" width="395.52"><g id="textblocktransform"><svg viewBox="0 0 395.52 205.02580100613272" height="205.02580100613272" width="395.52" id="textblock"><g><svg viewBox="0 0 395.52 144.66930738408703" height="144.66930738408703" width="395.52"><g transform="matrix(1,0,0,1,0,0)"><svg width="395.52" viewBox="1.7 -31.15 87.34 31.95" height="144.66930738408703" data-palette-color="#ff4057"><path d="M13.35 0.8Q10 0.8 7.35-0.8 4.7-2.4 3.2-5.28 1.7-8.15 1.7-11.75L1.7-11.75Q1.7-15.35 3.18-18.18 4.65-21 7.28-22.6 9.9-24.2 13.25-24.2L13.25-24.2Q16.6-24.2 19.25-22.6 21.9-21 23.4-18.15 24.9-15.3 24.9-11.7L24.9-11.7Q24.9-8.1 23.43-5.25 21.95-2.4 19.33-0.8 16.7 0.8 13.35 0.8L13.35 0.8ZM13.25-2.3Q15.65-2.3 17.53-3.5 19.4-4.7 20.45-6.85 21.5-9 21.5-11.7L21.5-11.7Q21.5-14.4 20.45-16.55 19.4-18.7 17.53-19.9 15.65-21.1 13.25-21.1L13.25-21.1Q10.9-21.1 9.05-19.9 7.2-18.7 6.15-16.57 5.1-14.45 5.1-11.75L5.1-11.75Q5.1-9 6.15-6.85 7.2-4.7 9.05-3.5 10.9-2.3 13.25-2.3L13.25-2.3ZM39.85 0.8Q36.45 0.8 33.8-0.8 31.15-2.4 29.65-5.25 28.15-8.1 28.15-11.7L28.15-11.7Q28.15-15.3 29.62-18.15 31.1-21 33.75-22.6 36.4-24.2 39.75-24.2L39.75-24.2Q42.6-24.2 44.72-22.98 46.85-21.75 48.6-19.5L48.6-19.5 46.1-17.55Q43.65-21.1 39.75-21.1L39.75-21.1Q37.4-21.1 35.52-19.9 33.65-18.7 32.6-16.55 31.55-14.4 31.55-11.7L31.55-11.7Q31.55-9 32.6-6.85 33.65-4.7 35.52-3.5 37.4-2.3 39.75-2.3L39.75-2.3Q42.15-2.3 43.7-3.13 45.25-3.95 46.5-5.55L46.5-5.55 49.15-3.7Q47.5-1.65 45.07-0.43 42.65 0.8 39.85 0.8L39.85 0.8ZM58.2 0L54.8 0 54.8-20.3 50.8-20.3 50.8-23.4 54.8-23.4 54.8-31.15 58.2-31.15 58.2-23.4 63.6-23.4 63.6-20.3 58.2-20.3 58.2 0ZM77.49 0.8Q74.14 0.8 71.49-0.8 68.84-2.4 67.34-5.28 65.84-8.15 65.84-11.75L65.84-11.75Q65.84-15.35 67.32-18.18 68.79-21 71.42-22.6 74.04-24.2 77.39-24.2L77.39-24.2Q80.74-24.2 83.39-22.6 86.04-21 87.54-18.15 89.04-15.3 89.04-11.7L89.04-11.7Q89.04-8.1 87.57-5.25 86.09-2.4 83.47-0.8 80.84 0.8 77.49 0.8L77.49 0.8ZM77.39-2.3Q79.79-2.3 81.67-3.5 83.54-4.7 84.59-6.85 85.64-9 85.64-11.7L85.64-11.7Q85.64-14.4 84.59-16.55 83.54-18.7 81.67-19.9 79.79-21.1 77.39-21.1L77.39-21.1Q75.04-21.1 73.19-19.9 71.34-18.7 70.29-16.57 69.24-14.45 69.24-11.75L69.24-11.75Q69.24-9 70.29-6.85 71.34-4.7 73.19-3.5 75.04-2.3 77.39-2.3L77.39-2.3Z" opacity="1" transform="matrix(1,0,0,1,0,0)" fill="#000000" class="wordmark-text-0" data-fill-palette-color="primary" id="text-0"></path></svg></g></svg></g><g transform="matrix(1,0,0,1,0,178.82225879409276)"><svg viewBox="0 0 232.209792 26.203542212039967" height="26.203542212039967" width="232.209792"><g transform="matrix(1,0,0,1,0,0)"><svg width="232.209792" viewBox="2.75 -36.3 410.26 46.3" height="26.203542212039967" data-palette-color="#dcdcdc"><path d="M32.05-16.95Q32.05-12.9 30.85-9.47 29.65-6.05 27.45-3.6L27.45-3.6 30.4-0.7 28.2 1.45 25.15-1.6Q21.75 0.8 17.4 0.8L17.4 0.8Q13.15 0.8 9.83-1.48 6.5-3.75 4.63-7.8 2.75-11.85 2.75-17L2.75-17Q2.75-22.15 4.63-26.23 6.5-30.3 9.83-32.58 13.15-34.85 17.4-34.85L17.4-34.85Q21.65-34.85 24.98-32.58 28.3-30.3 30.18-26.23 32.05-22.15 32.05-16.95L32.05-16.95ZM17.4-2.65Q20.15-2.65 22.5-4.15L22.5-4.15 18.3-8.35 20.5-10.55 24.85-6.25Q26.45-8.2 27.35-10.98 28.25-13.75 28.25-17L28.25-17Q28.25-21.15 26.85-24.45 25.45-27.75 22.98-29.6 20.5-31.45 17.4-31.45L17.4-31.45Q14.3-31.45 11.83-29.6 9.35-27.75 7.95-24.45 6.55-21.15 6.55-17L6.55-17Q6.55-12.85 7.95-9.58 9.35-6.3 11.83-4.48 14.3-2.65 17.4-2.65L17.4-2.65ZM60.15 0L56.65 0 53.15-9.55 39-9.55 35.85 0 32.1 0 44.2-34.1 47.7-34.1 60.15 0ZM45.9-29.2L40.15-12.65 52-12.65 45.9-29.2ZM93.39-23.4L96.79-23.4 96.79 0 93.39 0 93.39-3.45Q91.94-1.45 89.84-0.33 87.74 0.8 85.24 0.8L85.24 0.8Q81.89 0.8 79.24-0.8 76.59-2.4 75.09-5.25 73.59-8.1 73.59-11.75L73.59-11.75Q73.59-15.35 75.07-18.18 76.54-21 79.17-22.6 81.79-24.2 85.14-24.2L85.14-24.2Q87.69-24.2 89.82-23.08 91.94-21.95 93.39-19.9L93.39-19.9 93.39-23.4ZM85.14-2.3Q87.54-2.3 89.42-3.5 91.29-4.7 92.34-6.85 93.39-9 93.39-11.7L93.39-11.7Q93.39-14.4 92.34-16.55 91.29-18.7 89.42-19.9 87.54-21.1 85.14-21.1L85.14-21.1Q82.79-21.1 80.94-19.9 79.09-18.7 78.04-16.57 76.99-14.45 76.99-11.75L76.99-11.75Q76.99-9 78.04-6.85 79.09-4.7 80.94-3.5 82.79-2.3 85.14-2.3L85.14-2.3ZM114.24-24.2Q116.69-24.2 118.77-23.2 120.84-22.2 122.07-20.25 123.29-18.3 123.29-15.65L123.29-15.65 123.29 0 119.89 0 119.89-14.15Q119.89-21.1 113.69-21.1L113.69-21.1Q110.09-21.1 108.29-18.55 106.49-16 106.49-11.7L106.49-11.7 106.49 0 103.09 0 103.09-23.4 106.49-23.4 106.49-19.5Q107.69-21.75 109.67-22.98 111.64-24.2 114.24-24.2L114.24-24.2ZM138.59-4L146.04-23.4 149.24-23.4 136.59 10 133.19 10 136.89 0.45 127.29-23.4 130.84-23.4 138.59-4ZM175.73 0.8Q171.43 0.8 168.31-1.33 165.18-3.45 163.51-7.43 161.83-11.4 161.83-16.95L161.83-16.95Q161.83-22.55 163.51-26.58 165.18-30.6 168.31-32.73 171.43-34.85 175.73-34.85L175.73-34.85Q179.68-34.85 182.56-33.08 185.43-31.3 187.48-27.85L187.48-27.85 184.53-25.75Q181.38-31.45 175.73-31.45L175.73-31.45Q171.03-31.45 168.41-27.63 165.78-23.8 165.78-17L165.78-17Q165.78-10.25 168.43-6.43 171.08-2.6 175.73-2.6L175.73-2.6Q178.33-2.6 180.41-3.85 182.48-5.1 183.68-7.55 184.88-10 184.88-13.55L184.88-13.55 176.83-13.55 176.83-16.65 188.58-16.65 188.58-13.55Q188.58-8.9 186.93-5.68 185.28-2.45 182.36-0.83 179.43 0.8 175.73 0.8L175.73 0.8ZM199.08 0L195.68 0 195.68-23.4 199.08-23.4 199.08 0ZM197.38-27.95Q196.23-27.95 195.46-28.75 194.68-29.55 194.68-30.7L194.68-30.7Q194.68-31.8 195.46-32.58 196.23-33.35 197.38-33.35L197.38-33.35Q198.48-33.35 199.28-32.58 200.08-31.8 200.08-30.65L200.08-30.65Q200.08-29.55 199.28-28.75 198.48-27.95 197.38-27.95L197.38-27.95ZM211.88 0L208.48 0 208.48-20.3 204.48-20.3 204.48-23.4 208.48-23.4 208.48-31.15 211.88-31.15 211.88-23.4 217.28-23.4 217.28-20.3 211.88-20.3 211.88 0ZM225.58 0L221.83 0 221.83-34.1 225.58-34.1 225.58-19.35 243.58-19.35 243.58-34.1 247.33-34.1 247.33 0 243.58 0 243.58-16.25 225.58-16.25 225.58 0ZM271.62-23.4L275.02-23.4 275.02 0 271.62 0 271.62-3.9Q270.42-1.65 268.45-0.43 266.47 0.8 263.87 0.8L263.87 0.8Q261.42 0.8 259.35-0.2 257.27-1.2 256.05-3.15 254.82-5.1 254.82-7.75L254.82-7.75 254.82-23.4 258.22-23.4 258.22-9.25Q258.22-2.3 264.42-2.3L264.42-2.3Q268.02-2.3 269.82-4.85 271.62-7.4 271.62-11.7L271.62-11.7 271.62-23.4ZM293.02-24.2Q296.37-24.2 299-22.6 301.62-21 303.1-18.18 304.57-15.35 304.57-11.75L304.57-11.75Q304.57-8.1 303.07-5.25 301.57-2.4 298.92-0.8 296.27 0.8 292.92 0.8L292.92 0.8Q290.42 0.8 288.32-0.33 286.22-1.45 284.77-3.45L284.77-3.45 284.77 0 281.37 0 281.37-36.3 284.77-36.3 284.77-19.9Q286.22-21.95 288.35-23.08 290.47-24.2 293.02-24.2L293.02-24.2ZM293.02-2.3Q295.37-2.3 297.22-3.5 299.07-4.7 300.12-6.85 301.17-9 301.17-11.75L301.17-11.75Q301.17-14.45 300.12-16.57 299.07-18.7 297.22-19.9 295.37-21.1 293.02-21.1L293.02-21.1Q290.62-21.1 288.75-19.9 286.87-18.7 285.82-16.55 284.77-14.4 284.77-11.7L284.77-11.7Q284.77-9 285.82-6.85 286.87-4.7 288.75-3.5 290.62-2.3 293.02-2.3L293.02-2.3ZM332.02-24.2Q333.22-24.2 334.32-23.85L334.32-23.85 334.32-20.75Q333.27-21.25 332.02-21.25L332.02-21.25Q329.87-21.25 328.02-20.05 326.17-18.85 325.04-16.57 323.92-14.3 323.92-11.2L323.92-11.2 323.92 0 320.52 0 320.52-23.4 323.92-23.4 323.92-18.7Q325.27-21.3 327.34-22.75 329.42-24.2 332.02-24.2L332.02-24.2ZM347.06-24.2Q350.21-24.2 352.76-22.65 355.31-21.1 356.76-18.43 358.21-15.75 358.21-12.45L358.21-12.45Q358.21-11.5 358.16-11L358.16-11 338.91-11Q339.11-7.4 341.26-4.85 343.41-2.3 347.11-2.3L347.11-2.3Q350.11-2.3 352.09-3.43 354.06-4.55 355.26-6.55L355.26-6.55 357.96-4.75Q356.31-2.15 353.61-0.68 350.91 0.8 347.21 0.8L347.21 0.8Q343.81 0.8 341.16-0.8 338.51-2.4 337.01-5.25 335.51-8.1 335.51-11.7L335.51-11.7Q335.51-15.3 336.99-18.15 338.46-21 341.09-22.6 343.71-24.2 347.06-24.2L347.06-24.2ZM339.11-13.8L354.81-13.8Q354.31-17.45 352.36-19.28 350.41-21.1 347.06-21.1L347.06-21.1Q343.81-21.1 341.74-19.03 339.66-16.95 339.11-13.8L339.11-13.8ZM374.81-24.2Q378.16-24.2 380.81-22.6 383.46-21 384.96-18.15 386.46-15.3 386.46-11.65L386.46-11.65Q386.46-8.05 384.99-5.23 383.51-2.4 380.89-0.8 378.26 0.8 374.91 0.8L374.91 0.8Q372.36 0.8 370.24-0.33 368.11-1.45 366.66-3.5L366.66-3.5 366.66 10 363.26 10 363.26-23.4 366.66-23.4 366.66-19.95Q368.11-21.95 370.21-23.08 372.31-24.2 374.81-24.2L374.81-24.2ZM374.91-2.3Q377.26-2.3 379.11-3.5 380.96-4.7 382.01-6.83 383.06-8.95 383.06-11.65L383.06-11.65Q383.06-14.4 382.01-16.55 380.96-18.7 379.11-19.9 377.26-21.1 374.91-21.1L374.91-21.1Q372.51-21.1 370.64-19.9 368.76-18.7 367.71-16.55 366.66-14.4 366.66-11.7L366.66-11.7Q366.66-9 367.71-6.85 368.76-4.7 370.64-3.5 372.51-2.3 374.91-2.3L374.91-2.3ZM401.46 0.8Q398.11 0.8 395.46-0.8 392.81-2.4 391.31-5.28 389.81-8.15 389.81-11.75L389.81-11.75Q389.81-15.35 391.28-18.18 392.76-21 395.38-22.6 398.01-24.2 401.36-24.2L401.36-24.2Q404.71-24.2 407.36-22.6 410.01-21 411.51-18.15 413.01-15.3 413.01-11.7L413.01-11.7Q413.01-8.1 411.53-5.25 410.06-2.4 407.43-0.8 404.81 0.8 401.46 0.8L401.46 0.8ZM401.36-2.3Q403.76-2.3 405.63-3.5 407.51-4.7 408.56-6.85 409.61-9 409.61-11.7L409.61-11.7Q409.61-14.4 408.56-16.55 407.51-18.7 405.63-19.9 403.76-21.1 401.36-21.1L401.36-21.1Q399.01-21.1 397.16-19.9 395.31-18.7 394.26-16.57 393.21-14.45 393.21-11.75L393.21-11.75Q393.21-9 394.26-6.85 395.31-4.7 397.16-3.5 399.01-2.3 401.36-2.3L401.36-2.3Z" opacity="1" transform="matrix(1,0,0,1,0,0)" fill="#000000" class="slogan-text-1" data-fill-palette-color="secondary" id="text-1"></path></svg></g></svg></g></svg></g></svg></g><g transform="matrix(1,0,0,1,0,5.000227050844558)"><svg viewBox="0 0 244.43135999999998 195.0253469044436" height="195.0253469044436" width="244.43135999999998"><g><svg xmlns="http://www.w3.org/2000/svg" xmlns:xlink="http://www.w3.org/1999/xlink" version="1.1" x="0" y="0" viewBox="13.462599655172843 21.137999999999998 73.02659806952252 58.26600000000001" enable-background="new 0 0 100 100" xml:space="preserve" height="195.0253469044436" width="244.43135999999998" class="icon-icon-0" data-fill-palette-color="accent" id="icon-0"><g fill="#dcdcdc" data-fill-palette-color="accent"><path fill="#000000" d="M83.755 50.834c-0.767-0.354-1.901-0.523-3.522-0.081 0.634-2.24 0.009-3.988-1.062-5.021-1.785-1.722-4.676-1.507-6.722 0.498-2.083 2.043-4.499 3.367-6.027 4.077l-0.224-12.98c0-8.926-7.262-16.189-16.188-16.189-0.011 0-0.023 0.001-0.035 0.001-0.011 0-0.024-0.001-0.035-0.001-8.926 0-16.188 7.263-16.188 16.162l-0.224 13.008c-1.528-0.71-3.944-2.036-6.027-4.077-2.046-2.005-4.936-2.22-6.721-0.498-1.071 1.033-1.696 2.781-1.062 5.021-1.623-0.442-2.758-0.273-3.523 0.081-2.629 1.215-3.42 3.96-2.115 7.341 1.392 3.609 3.892 5.541 8.478 7.924-0.232 0.582-0.368 1.208-0.375 1.859-0.027 2.37 1.756 5.179 6.87 5.296 0.225 0.006 0.508 0.008 0.833 0.008 1.071 0 2.601-0.028 4.019-0.078-0.132 0.371-0.189 0.723-0.203 1.02-0.058 1.252 0.556 2.586 1.684 3.659 1.068 1.018 2.481 1.54 4.141 1.54 0.484 0 0.989-0.045 1.513-0.134 3.362-0.574 7.408-3.095 9.736-5.868 1.551 2.025 3.855 3.924 6.741 5.079 1.296 0.518 2.512 0.776 3.612 0.776 1.483 0 2.754-0.467 3.726-1.394 1.127-1.073 1.741-2.407 1.684-3.659-0.014-0.295-0.07-0.645-0.202-1.016 1.335 0.048 2.754 0.074 3.762 0.074 0.312 0 0.584-0.002 0.803-0.008 5.115-0.117 6.896-2.926 6.87-5.296-0.008-0.651-0.144-1.277-0.376-1.857 4.588-2.385 7.086-4.316 8.479-7.926C87.175 54.794 86.385 52.049 83.755 50.834zM74.631 48.457c0.925-0.907 1.915-0.926 2.374-0.481 0.639 0.615 0.65 2.556-1.928 5.385-0.027 0.029-0.048 0.067-0.073 0.099-0.213 0.15-0.422 0.297-0.643 0.462-2.44 1.815-5.372 2.032-6.892 1.319-0.7-0.329-0.929-0.762-1.009-1.072 0.014-0.089 0.023-0.18 0.022-0.272l-0.004-0.22C67.889 53.123 71.528 51.499 74.631 48.457zM24.87 53.36c-2.578-2.829-2.565-4.77-1.927-5.385 0.46-0.444 1.449-0.426 2.374 0.481 3.105 3.044 6.744 4.667 8.152 5.221l-0.004 0.218c-0.002 0.095 0.008 0.186 0.022 0.274-0.081 0.312-0.311 0.741-1.008 1.07-1.521 0.715-4.453 0.496-6.891-1.32-0.221-0.164-0.433-0.312-0.646-0.463C24.917 53.426 24.897 53.39 24.87 53.36zM82.961 57.053c-0.999 2.586-2.731 4.102-7.585 6.578-0.77-0.506-1.668-0.805-2.618-0.805-3.541 0-6.658-1.068-6.706-1.085-0.812-0.284-1.7 0.144-1.984 0.955-0.286 0.812 0.141 1.701 0.953 1.987 0.146 0.052 3.637 1.262 7.737 1.262 1.068 0 1.881 1.081 1.893 2.049 0.014 1.289-1.415 2.087-3.824 2.143-1.639 0.041-6.04-0.076-7.321-0.248-0.084-0.012-0.166-0.012-0.248-0.01-1.439-1.276-2.769-2.58-4.078-4.308-0.521-0.686-1.497-0.819-2.184-0.299-0.686 0.521-0.82 1.499-0.3 2.185 2.037 2.686 4.12 4.462 6.328 6.341 0.014 0.014 0.029 0.024 0.046 0.036 0.34 0.271 0.348 0.455 0.351 0.514 0.013 0.271-0.204 0.768-0.719 1.258-1.062 1.011-3.172 0.323-4.028-0.022-3.604-1.443-6.871-4.952-6.993-7.512-0.042-0.859-0.781-1.524-1.631-1.481-0.86 0.04-1.525 0.771-1.483 1.631 0.033 0.69 0.211 1.444 0.51 2.221-1.386 2.256-5.307 5.197-8.564 5.755-1.328 0.225-2.33 0.026-2.979-0.591-0.514-0.49-0.731-0.986-0.719-1.258 0.003-0.059 0.012-0.243 0.352-0.514 0.015-0.012 0.029-0.022 0.044-0.036 2.206-1.878 4.289-3.651 6.329-6.341 0.521-0.686 0.387-1.663-0.3-2.185-0.686-0.521-1.663-0.387-2.184 0.299-1.31 1.728-2.639 3.031-4.078 4.308-0.082-0.002-0.164-0.002-0.249 0.01-1.233 0.167-5.936 0.287-7.606 0.248-2.41-0.056-3.839-0.854-3.824-2.143 0.011-0.968 0.823-2.049 1.893-2.049 4.1 0 7.59-1.21 7.737-1.262 0.812-0.286 1.238-1.172 0.955-1.985-0.284-0.812-1.173-1.239-1.987-0.957-0.031 0.012-3.155 1.085-6.705 1.085-0.951 0-1.85 0.299-2.619 0.805-4.853-2.477-6.587-3.992-7.585-6.578-1.032-2.673 0.093-3.192 0.515-3.39 0.752-0.348 3.19 0.5 6.225 2.757 3.092 2.303 7.238 2.978 10.079 1.642 1.717-0.808 2.754-2.286 2.846-4.057 0.202-3.88 0.284-16.148 0.289-16.679 0-7.196 5.843-13.05 13.034-13.069 7.191 0.02 13.036 5.873 13.036 13.08 0.003 0.52 0.086 12.789 0.287 16.668 0.093 1.771 1.129 3.249 2.846 4.057 2.842 1.336 6.986 0.661 10.079-1.642 3.034-2.257 5.472-3.104 6.225-2.757C82.87 53.86 83.993 54.38 82.961 57.053z" data-fill-palette-color="accent"></path><path fill="#000000" d="M44.141 45.028c-1.916 0-3.474 1.56-3.474 3.475v4.775c0 1.915 1.558 3.474 3.474 3.474s3.475-1.559 3.475-3.474v-4.775C47.616 46.588 46.057 45.028 44.141 45.028zM46.057 53.278c0 1.058-0.859 1.915-1.916 1.915-1.056 0-1.916-0.857-1.916-1.915v-4.775c0-1.055 0.86-1.915 1.916-1.915 1.057 0 1.916 0.86 1.916 1.915V53.278z" data-fill-palette-color="accent"></path><path fill="#000000" d="M56.199 45.028c-1.917 0-3.475 1.56-3.475 3.475v4.775c0 1.915 1.558 3.474 3.475 3.474 1.915 0 3.474-1.559 3.474-3.474v-4.775C59.673 46.588 58.114 45.028 56.199 45.028zM58.114 53.278c0 1.058-0.859 1.915-1.915 1.915-1.057 0-1.917-0.857-1.917-1.915v-4.775c0-1.055 0.86-1.915 1.917-1.915 1.056 0 1.915 0.86 1.915 1.915V53.278z" data-fill-palette-color="accent"></path><circle fill="#000000" cx="44.465" cy="49.885" r="1.2" data-fill-palette-color="accent"></circle><circle fill="#000000" cx="55.923" cy="49.885" r="1.2" data-fill-palette-color="accent"></circle><circle fill="#000000" cx="54.77" cy="30.3" r="1.6" data-fill-palette-color="accent"></circle><circle fill="#000000" cx="57.551" cy="32.87" r="0.78" data-fill-palette-color="accent"></circle></g></svg></g></svg></g></svg></g><defs></defs></svg><rect width="395.52" height="120.29563294785652" fill="none" stroke="none" visibility="hidden"></rect></g></svg></g></svg>